<svg xmlns="http://www.w3.org/2000/svg" version="1.1" xmlns:xlink="http://www.w3.org/1999/xlink" xmlns:svgjs="http://svgjs.dev/svgjs" width="1440" height="560" preserveAspectRatio="none" viewBox="0 0 1440 560"><g mask="url(&quot;#SvgjsMask1006&quot;)" fill="none"><rect width="1440" height="560" x="0" y="0" fill="#1e3266"></rect><path d="M1488 560L0 560 L0 293.99Q68.16 290.15, 72 358.32Q138.47 304.79, 192 371.26Q214.64 321.9, 264 344.54Q292.75 253.29, 384 282.04Q427.08 253.13, 456 296.21Q532.26 252.48, 576 328.74Q632.89 313.63, 648 370.52Q653.29 303.81, 720 309.1Q787.08 256.18, 840 323.26Q857.98 269.24, 912 287.21Q996.25 251.46, 1032 335.71Q1079.03 310.74, 1104 357.77Q1130.24 264.01, 1224 290.25Q1265.39 259.64, 1296 301.04Q1351.7 284.74, 1368 340.44Q1416.75 269.19, 1488 317.94z" fill="#182f5d"></path><path d="M1464 560L0 560 L0 375.15Q59.49 362.64, 72 422.14Q139.94 370.08, 192 438.03Q198.14 372.17, 264 378.32Q317.49 311.81, 384 365.29Q471.06 332.36, 504 419.42Q545.64 389.06, 576 430.71Q618.14 352.86, 696 395Q747.33 326.33, 816 377.66Q845.82 335.48, 888 365.29Q939.83 345.12, 960 396.95Q998.45 315.4, 1080 353.85Q1126.58 328.43, 1152 375.01Q1236.62 339.63, 1272 424.25Q1274.61 354.86, 1344 357.47Q1409.37 302.84, 1464 368.2z" fill="#25467d"></path><path d="M1536 560L0 560 L0 499.87Q18.31 446.19, 72 464.5Q120.16 392.66, 192 440.83Q244.88 373.71, 312 426.59Q370.88 413.46, 384 472.34Q442.32 458.66, 456 516.99Q482.97 471.96, 528 498.93Q558.8 457.74, 600 488.54Q639.54 408.08, 720 447.61Q787.57 395.18, 840 462.75Q916.57 419.31, 960 495.88Q961.97 425.85, 1032 427.82Q1097.74 373.56, 1152 439.3Q1232.88 400.18, 1272 481.06Q1281.49 418.55, 1344 428.04Q1385.6 397.64, 1416 439.24Q1492.08 395.32, 1536 471.4z" fill="#356cb1"></path><path d="M1536 560L0 560 L0 547.8Q23.91 499.71, 72 523.63Q119.09 450.72, 192 497.81Q248.29 482.1, 264 538.38Q310.16 512.54, 336 558.7Q410.13 512.83, 456 586.95Q456.75 515.7, 528 516.45Q579.31 447.76, 648 499.08Q733.63 464.71, 768 550.34Q808.85 471.19, 888 512.05Q984.08 488.13, 1008 584.2Q1061.1 517.3, 1128 570.4Q1138.63 509.02, 1200 519.65Q1230.1 477.75, 1272 507.84Q1333.63 497.47, 1344 559.1Q1366.43 509.53, 1416 531.96Q1468.13 464.09, 1536 516.22z" fill="rgba(38, 115, 219, 1)"></path></g><defs><mask id="SvgjsMask1006"><rect width="1440" height="560" fill="#ffffff"></rect></mask></defs></svg>