<svg xmlns="http://www.w3.org/2000/svg" version="1.1" xmlns:xlink="http://www.w3.org/1999/xlink" xmlns:svgjs="http://svgjs.dev/svgjs" width="1440" height="560" preserveAspectRatio="none" viewBox="0 0 1440 560"><g mask="url(&quot;#SvgjsMask1182&quot;)" fill="none"><rect width="1440" height="560" x="0" y="0" fill="url(&quot;#SvgjsLinearGradient1183&quot;)"></rect><path d="M1488 560L0 560 L0 315.99Q19.45 263.44, 72 282.89Q117.66 256.55, 144 302.21Q222.89 261.1, 264 339.99Q271.62 275.61, 336 283.22Q378.96 254.19, 408 297.15Q503.53 272.68, 528 368.21Q539.78 307.99, 600 319.76Q647.03 246.79, 720 293.82Q820.25 274.07, 840 374.32Q892.31 306.63, 960 358.94Q996.21 275.14, 1080 311.35Q1108.75 268.11, 1152 296.86Q1207.8 280.66, 1224 336.46Q1245.97 286.44, 1296 308.41Q1376.41 268.83, 1416 349.24Q1443.34 304.58, 1488 331.91z" fill="rgba(203, 47, 60, 1)"></path><path d="M1512 560L0 560 L0 394.16Q39.44 313.61, 120 353.05Q162.48 323.53, 192 366.01Q269.86 323.87, 312 401.72Q348.62 318.34, 432 354.95Q510.34 313.29, 552 391.63Q599.98 319.61, 672 367.59Q767.35 342.94, 792 438.29Q797.95 372.25, 864 378.2Q894.77 336.97, 936 367.74Q997.99 357.73, 1008 419.72Q1035.21 326.94, 1128 354.15Q1195.13 301.28, 1248 368.42Q1343.17 343.59, 1368 438.76Q1377.17 375.94, 1440 385.11Q1481.01 354.13, 1512 395.14z" fill="rgba(229, 80, 80, 1)"></path><path d="M1488 560L0 560 L0 513.71Q18.38 460.09, 72 478.47Q81.54 416.01, 144 425.55Q214.42 375.97, 264 446.39Q335.68 398.07, 384 469.75Q438.74 452.49, 456 507.22Q497.16 476.38, 528 517.54Q541.78 411.32, 648 425.1Q719.44 424.55, 720 495.99Q762.45 466.44, 792 508.9Q816.27 461.17, 864 485.45Q901.41 402.86, 984 440.27Q1031.7 415.97, 1056 463.66Q1071.52 407.19, 1128 422.71Q1202 376.71, 1248 450.71Q1327.96 410.67, 1368 490.64Q1418.71 421.35, 1488 472.05z" fill="rgba(205, 22, 22, 1)"></path><path d="M1512 560L0 560 L0 521.05Q50.66 499.71, 72 550.37Q145.17 503.54, 192 576.7Q199.57 512.27, 264 519.84Q309.87 445.71, 384 491.57Q482.05 469.62, 504 567.66Q527.52 519.18, 576 542.71Q611.41 458.13, 696 493.54Q743.46 469, 768 516.46Q818.85 495.31, 840 546.16Q920.45 506.61, 960 587.05Q980.89 535.94, 1032 556.84Q1050.84 503.68, 1104 522.52Q1124 470.51, 1176 490.51Q1217.68 460.19, 1248 501.88Q1333.72 467.6, 1368 553.31Q1389.74 503.05, 1440 524.8Q1461.54 474.33, 1512 495.87z" fill="rgba(235, 5, 5, 1)"></path></g><defs><mask id="SvgjsMask1182"><rect width="1440" height="560" fill="#ffffff"></rect></mask><linearGradient x1="50%" y1="0%" x2="50%" y2="100%" gradientUnits="userSpaceOnUse" id="SvgjsLinearGradient1183"><stop stop-color="#0e2a47" offset="0"></stop><stop stop-color="rgba(213, 14, 14, 1)" offset="1"></stop></linearGradient></defs></svg>